<svg width="32" height="32" viewBox="0 0 32 32" fill="none" xmlns="http://www.w3.org/2000/svg">
<path d="M22.7926 16.2418C22.7624 12.8585 25.5378 11.2125 25.6648 11.1359C24.0929 8.82328 21.6566 8.50731 20.8004 8.48211C18.7542 8.26482 16.7694 9.71766 15.727 9.71766C14.6639 9.71766 13.0587 8.50311 11.3288 8.5388C9.10258 8.57344 7.01995 9.87407 5.87773 11.8938C3.52048 16.0119 5.27854 22.0637 7.53697 25.3924C8.6667 27.0227 9.98681 28.8429 11.7147 28.7789C13.4051 28.7086 14.0366 27.6914 16.0766 27.6914C18.0978 27.6914 18.6908 28.7789 20.453 28.738C22.2672 28.7086 23.4094 27.1004 24.4997 25.4554C25.8052 23.5869 26.3295 21.7467 26.3503 21.6522C26.3076 21.6375 22.8269 20.297 22.7926 16.2418Z" fill="#465059"/>
<path d="M19.4638 6.2924C20.373 5.14503 20.9951 3.58406 20.8224 2C19.5064 2.05879 17.8607 2.91853 16.913 4.0407C16.0746 5.02956 15.3256 6.65036 15.5191 8.17459C16.9973 8.28586 18.5151 7.42192 19.4638 6.2924Z" fill="#465059"/>
</svg>
