<svg width="140" height="140" viewBox="0 0 140 140" fill="none" xmlns="http://www.w3.org/2000/svg">
<g filter="url(#filter0_dd)">
<rect x="20" y="10" width="100" height="100" rx="50" fill="white"/>
<rect x="22" y="12" width="96" height="96" rx="48" stroke="#B8E0FD" stroke-width="4"/>
</g>
<path d="M48.633 43.9526C46.5571 44.7082 45.4867 47.0036 46.2423 49.0795L46.6187 50.1228H54.1898H77.7663H85.3487L80.4388 36.633C79.6832 34.5571 77.3878 33.4867 75.3119 34.2423L48.633 43.9526Z" fill="#DBF0FF"/>
<path d="M46 47.0801C46 45.4232 47.3431 44.0801 49 44.0801H90.0588C91.7157 44.0801 93.0588 45.4232 93.0588 47.0801V75.4108C93.0588 77.0676 91.7157 78.4108 90.0588 78.4108H49C47.3431 78.4108 46 77.0676 46 75.4108V47.0801Z" fill="#0795FF"/>
<g filter="url(#filter1_i)">
<ellipse cx="84.7658" cy="61.2453" rx="3.09486" ry="3.09486" fill="white"/>
</g>
<defs>
<filter id="filter0_dd" x="0" y="0" width="140" height="140" filterUnits="userSpaceOnUse" color-interpolation-filters="sRGB">
<feFlood flood-opacity="0" result="BackgroundImageFix"/>
<feColorMatrix in="SourceAlpha" type="matrix" values="0 0 0 0 0 0 0 0 0 0 0 0 0 0 0 0 0 0 127 0"/>
<feOffset dy="10"/>
<feGaussianBlur stdDeviation="10"/>
<feColorMatrix type="matrix" values="0 0 0 0 0 0 0 0 0 0 0 0 0 0 0 0 0 0 0.1 0"/>
<feBlend mode="normal" in2="BackgroundImageFix" result="effect1_dropShadow"/>
<feColorMatrix in="SourceAlpha" type="matrix" values="0 0 0 0 0 0 0 0 0 0 0 0 0 0 0 0 0 0 127 0"/>
<feMorphology radius="1" operator="dilate" in="SourceAlpha" result="effect2_dropShadow"/>
<feOffset dy="2"/>
<feGaussianBlur stdDeviation="1"/>
<feColorMatrix type="matrix" values="0 0 0 0 0 0 0 0 0 0 0 0 0 0 0 0 0 0 0.1 0"/>
<feBlend mode="normal" in2="effect1_dropShadow" result="effect2_dropShadow"/>
<feBlend mode="normal" in="SourceGraphic" in2="effect2_dropShadow" result="shape"/>
</filter>
<filter id="filter1_i" x="81.6709" y="58.1504" width="6.18971" height="8.18972" filterUnits="userSpaceOnUse" color-interpolation-filters="sRGB">
<feFlood flood-opacity="0" result="BackgroundImageFix"/>
<feBlend mode="normal" in="SourceGraphic" in2="BackgroundImageFix" result="shape"/>
<feColorMatrix in="SourceAlpha" type="matrix" values="0 0 0 0 0 0 0 0 0 0 0 0 0 0 0 0 0 0 127 0" result="hardAlpha"/>
<feOffset dy="2"/>
<feGaussianBlur stdDeviation="1"/>
<feComposite in2="hardAlpha" operator="arithmetic" k2="-1" k3="1"/>
<feColorMatrix type="matrix" values="0 0 0 0 1 0 0 0 0 1 0 0 0 0 1 0 0 0 0.3 0"/>
<feBlend mode="normal" in2="shape" result="effect1_innerShadow"/>
</filter>
</defs>
</svg>
