<svg width="20" height="20" viewBox="0 0 20 20" fill="none" xmlns="http://www.w3.org/2000/svg">
<path fill-rule="evenodd" clip-rule="evenodd" d="M0.1875 10.028C0.1875 4.67603 4.5315 0.332031 9.8835 0.332031C15.2355 0.332031 19.5795 4.70003 19.5795 10.028C19.5795 15.38 15.2355 19.724 9.8835 19.724C4.5315 19.724 0.1875 15.38 0.1875 10.028ZM10.6039 14.036L13.1479 11.492C13.4359 11.204 13.8919 11.204 14.1799 11.492C14.4679 11.756 14.4679 12.212 14.1799 12.5L10.4119 16.268C10.2919 16.412 10.0999 16.484 9.90792 16.484C9.71592 16.484 9.54792 16.412 9.40392 16.268L5.63592 12.5C5.34792 12.236 5.34792 11.78 5.63592 11.492C5.89992 11.204 6.35592 11.204 6.64392 11.492L9.16392 14.012V4.62799C9.16392 4.21999 9.47592 3.90799 9.88392 3.90799C10.2919 3.90799 10.6039 4.21999 10.6039 4.62799V14.036Z" fill="#1E2E3D"/>
</svg>
