<svg width="140" height="140" viewBox="0 0 140 140" fill="none" xmlns="http://www.w3.org/2000/svg">
<g filter="url(#filter0_dd)">
<rect x="20" y="10" width="100" height="100" rx="50" fill="white"/>
<rect x="22" y="12" width="96" height="96" rx="48" stroke="#B8E0FD" stroke-width="4"/>
</g>
<circle cx="70" cy="60" r="30" fill="#0795FF"/>
<path fill-rule="evenodd" clip-rule="evenodd" d="M57.2125 47.2124C56.5944 47.8305 55.6005 47.9222 54.9315 47.3596L53.1876 45.8931C52.3016 45.148 52.1814 43.8185 53 42.9999C53.8186 42.1813 55.1481 42.3014 55.8933 43.1875L57.3597 44.9313C57.9223 45.6003 57.8306 46.5943 57.2125 47.2124ZM64.0854 41.245C64.3466 42.0758 63.8867 42.9526 63.0819 43.2853C62.2771 43.618 61.3218 43.3274 60.9195 42.555L59.8659 40.5324C59.3301 39.5038 59.7343 38.2227 60.8061 37.7797C61.878 37.3366 63.0536 37.963 63.4014 39.0694L64.0854 41.245ZM52.5551 50.9194C53.3275 51.3217 53.6181 52.2769 53.2854 53.0818C52.9527 53.8866 52.0759 54.3464 51.2451 54.0853L49.0696 53.4013C47.9631 53.0535 47.3367 51.8778 47.7798 50.806C48.2229 49.7341 49.5039 49.33 50.5325 49.8658L52.5551 50.9194ZM71.7148 40.4102C71.6392 41.2795 70.8725 41.9157 70 41.9157C69.1275 41.9157 68.3608 41.2795 68.2852 40.4102L68.0876 38.138C67.9873 36.9843 68.842 35.9582 70 35.9582C71.158 35.9582 72.0127 36.9843 71.9124 38.138L71.7148 40.4102ZM50.4104 58.2851C51.2796 58.3607 51.9158 59.1273 51.9158 59.9999C51.9158 60.8724 51.2796 61.639 50.4104 61.7146L48.1381 61.9123C46.9845 62.0126 45.9584 61.1579 45.9584 59.9999C45.9584 58.8419 46.9845 57.9871 48.1381 58.0875L50.4104 58.2851ZM79.0805 42.555C78.6782 43.3274 77.7229 43.618 76.9181 43.2853C76.1133 42.9526 75.6534 42.0758 75.9146 41.245L76.5986 39.0694C76.9464 37.963 78.122 37.3366 79.1939 37.7797C80.2657 38.2227 80.6699 39.5038 80.1341 40.5324L79.0805 42.555ZM51.2451 65.9145C52.0759 65.6533 52.9527 66.1132 53.2854 66.918C53.6181 67.7228 53.3275 68.6781 52.5551 69.0804L50.5325 70.134C49.5039 70.6698 48.2229 70.2656 47.7798 69.1938C47.3367 68.1219 47.9631 66.9463 49.0696 66.5984L51.2451 65.9145ZM55.5371 72.1308C55.8716 71.8495 56.3669 71.8908 56.6623 72.2129C56.9577 72.535 56.962 73.0379 56.653 73.3469L53.7411 76.2588C53.3318 76.6681 52.6634 76.6665 52.2721 76.2399C51.8808 75.8133 51.9424 75.1537 52.3854 74.7812L55.5371 72.1308ZM82.7875 47.2124C82.1694 46.5943 82.0777 45.6003 82.6403 44.9313L84.1067 43.1875C84.8519 42.3014 86.1814 42.1813 87 42.9999C87.8186 43.8185 87.6984 45.148 86.8124 45.8931L85.0685 47.3596C84.3995 47.9222 83.4056 47.8305 82.7875 47.2124ZM88.7549 54.0853C87.9241 54.3464 87.0473 53.8866 86.7146 53.0818C86.3819 52.2769 86.6725 51.3217 87.4449 50.9194L89.4675 49.8658C90.4961 49.33 91.7772 49.7341 92.2202 50.806C92.6633 51.8778 92.0369 53.0535 90.9304 53.4013L88.7549 54.0853ZM89.5896 61.7146C88.7204 61.639 88.0842 60.8724 88.0842 59.9999C88.0842 59.1273 88.7204 58.3607 89.5896 58.2851L91.8619 58.0875C93.0155 57.9871 94.0416 58.8419 94.0416 59.9999C94.0416 61.1579 93.0156 62.0126 91.8619 61.9123L89.5896 61.7146ZM87.4449 69.0804C86.6725 68.6781 86.3819 67.7228 86.7146 66.918C87.0473 66.1132 87.9241 65.6533 88.7549 65.9145L90.9304 66.5984C92.0369 66.9463 92.6633 68.1219 92.2202 69.1938C91.7771 70.2656 90.4961 70.6698 89.4675 70.134L87.4449 69.0804ZM83.347 73.3469C83.038 73.0379 83.0423 72.535 83.3377 72.2129C83.6331 71.8908 84.1284 71.8495 84.4629 72.1308L87.6146 74.7812C88.0576 75.1537 88.1192 75.8133 87.7279 76.2399C87.3366 76.6665 86.6682 76.6681 86.2589 76.2588L83.347 73.3469Z" fill="url(#paint0_angular)"/>
<path d="M68.6533 62.322L77.7276 68.825C78.2656 69.2587 79.0602 69.1813 79.4939 68.6432C79.8334 68.2123 79.8563 67.6244 79.5821 67.1815L74.2168 57.3915C73.1067 55.6319 70.7822 55.0904 69.0225 56.2005C67.2629 57.3106 66.7215 59.6352 67.8316 61.3948C68.0486 61.7464 68.3428 62.0651 68.6533 62.322Z" fill="white"/>
<defs>
<filter id="filter0_dd" x="0" y="0" width="140" height="140" filterUnits="userSpaceOnUse" color-interpolation-filters="sRGB">
<feFlood flood-opacity="0" result="BackgroundImageFix"/>
<feColorMatrix in="SourceAlpha" type="matrix" values="0 0 0 0 0 0 0 0 0 0 0 0 0 0 0 0 0 0 127 0"/>
<feOffset dy="10"/>
<feGaussianBlur stdDeviation="10"/>
<feColorMatrix type="matrix" values="0 0 0 0 0 0 0 0 0 0 0 0 0 0 0 0 0 0 0.1 0"/>
<feBlend mode="normal" in2="BackgroundImageFix" result="effect1_dropShadow"/>
<feColorMatrix in="SourceAlpha" type="matrix" values="0 0 0 0 0 0 0 0 0 0 0 0 0 0 0 0 0 0 127 0"/>
<feMorphology radius="1" operator="dilate" in="SourceAlpha" result="effect2_dropShadow"/>
<feOffset dy="2"/>
<feGaussianBlur stdDeviation="1"/>
<feColorMatrix type="matrix" values="0 0 0 0 0 0 0 0 0 0 0 0 0 0 0 0 0 0 0.1 0"/>
<feBlend mode="normal" in2="effect1_dropShadow" result="effect2_dropShadow"/>
<feBlend mode="normal" in="SourceGraphic" in2="effect2_dropShadow" result="shape"/>
</filter>
<radialGradient id="paint0_angular" cx="0" cy="0" r="1" gradientUnits="userSpaceOnUse" gradientTransform="translate(70 59.9999) rotate(90) scale(28.6876)">
<stop offset="0.0873239" stop-color="white" stop-opacity="0"/>
<stop offset="0.911337" stop-color="white"/>
</radialGradient>
</defs>
</svg>
