<svg width="217" height="86" viewBox="0 0 217 86" fill="none" xmlns="http://www.w3.org/2000/svg">
<path d="M51.4336 60.9709C52.3484 65.3093 54.4427 68.6517 57.7164 70.9981C60.9901 73.3445 64.9859 74.5104 69.7038 74.496C72.6652 74.5623 75.6033 73.9561 78.2987 72.7226C83.3875 70.266 89.3029 70.2443 94.1811 73.1023L94.6024 73.3517C88.9698 81.667 80.6324 85.8247 69.5904 85.8247C60.3058 85.8247 52.8058 82.9776 47.0903 77.2834C41.3748 71.5892 38.5206 64.3929 38.5278 55.6943C38.5278 47.1367 41.3442 39.9711 46.9768 34.1974C52.6095 28.4236 59.843 25.5314 68.6774 25.5205C77.0508 25.5205 83.9223 28.4634 89.2921 34.3492C94.6619 40.235 97.3449 47.3808 97.3413 55.7865V55.8299C97.3242 57.1983 96.7689 58.5044 95.7964 59.4634C94.8239 60.4224 93.5131 60.9565 92.1498 60.9492L51.4336 60.9709ZM52.6167 50.8786H83.6144C83.7729 50.8785 83.9292 50.8421 84.0715 50.7722C84.2139 50.7023 84.3384 50.6008 84.4358 50.4753C84.5332 50.3498 84.6008 50.2037 84.6335 50.0481C84.6663 49.8925 84.6632 49.7314 84.6246 49.5771C83.681 45.5604 81.8479 42.4874 79.1252 40.3579C76.1165 37.9899 72.3865 36.7354 68.5639 36.8059C63.9937 36.8059 60.187 38.0712 57.1437 40.602C54.3831 42.9091 52.4421 46.0526 51.6119 49.5608C51.5716 49.7157 51.5671 49.8777 51.5986 50.0346C51.6301 50.1914 51.6968 50.339 51.7937 50.4661C51.8906 50.5931 52.0151 50.6964 52.1577 50.7678C52.3003 50.8393 52.4573 50.8772 52.6167 50.8786Z" fill="url(#paint0_linear)"/>
<path d="M186.282 85.8472C177.902 85.8472 170.783 82.9422 164.928 77.1323C159.072 71.3224 156.14 64.1767 156.133 55.6951C156.133 47.2134 159.064 40.0677 164.928 34.2578C170.791 28.4479 177.909 25.543 186.282 25.543C194.731 25.543 201.868 28.4479 207.691 34.2578C213.515 40.0677 216.428 47.2134 216.432 55.6951C216.432 64.1839 213.518 71.3297 207.691 77.1323C201.864 82.935 194.728 85.8399 186.282 85.8472ZM173.603 68.6507C177 71.9587 181.547 73.8088 186.28 73.8088C191.012 73.8088 195.559 71.9587 198.956 68.6507C202.384 65.2125 204.099 60.8939 204.099 55.6951C204.099 50.4962 202.384 46.1776 198.956 42.7394C195.559 39.4314 191.012 37.5813 186.28 37.5813C181.547 37.5813 177 39.4314 173.603 42.7394C170.178 46.1849 168.466 50.5034 168.466 55.6951C168.466 60.8867 170.178 65.2053 173.603 68.6507Z" fill="#2D333F"/>
<path d="M32.7365 32.2886L33.6981 26.7679C33.7241 26.6176 33.717 26.4635 33.6774 26.3162C33.6378 26.169 33.5667 26.0322 33.4689 25.9154C33.3711 25.7987 33.2491 25.7048 33.1114 25.6403C32.9737 25.5759 32.8236 25.5424 32.6717 25.5423H22.7155V12.3806C22.7164 12.2186 22.6794 12.0586 22.6076 11.9135C22.5357 11.7684 22.4309 11.6423 22.3017 11.5452C22.1724 11.4482 22.0223 11.3829 21.8634 11.3547C21.7044 11.3265 21.5411 11.3361 21.3865 11.3827L15.3793 13.1669C13.9369 13.5977 12.6714 14.4843 11.7712 15.6949C10.8709 16.9054 10.3838 18.3754 10.3823 19.8861V25.5423H7.7136C6.2473 25.5432 4.82823 26.0629 3.70585 27.0101C2.58346 27.9573 1.82958 29.2714 1.57673 30.7213L0.598931 36.2474C0.572938 36.3969 0.579839 36.5504 0.619152 36.697C0.658464 36.8436 0.729238 36.9798 0.826511 37.096C0.923785 37.2123 1.04521 37.3058 1.18227 37.37C1.31933 37.4341 1.46871 37.4675 1.61994 37.4676H10.3823V63.9157C10.3825 68.2006 11.7285 72.3763 14.2287 75.8492C16.729 79.322 20.2563 81.9151 24.3091 83.2597L29.3439 84.93C29.6047 85.0158 29.8887 84.9943 30.1337 84.8703C30.3788 84.7463 30.5649 84.5298 30.6513 84.2684L32.2179 79.5232C32.744 77.921 32.615 76.1746 31.8594 74.6677C31.1038 73.1608 29.7833 72.0165 28.1879 71.4863C26.5985 70.9585 25.2157 69.9402 24.2369 68.5769C23.2581 67.2135 22.7332 65.5746 22.7371 63.894V57.6738V37.4676H26.6212C28.0838 37.4616 29.4978 36.9395 30.6157 35.9928C31.7336 35.046 32.4843 33.7348 32.7365 32.2886Z" fill="url(#paint1_linear)"/>
<path d="M124.957 71.4865C123.367 70.9608 121.983 69.9431 121.003 68.5793C120.024 67.2154 119.5 65.5754 119.507 63.8942V8.17791C119.498 6.18103 118.701 4.26903 117.29 2.86108C115.88 1.45313 113.971 0.66411 111.981 0.667H108.2C107.925 0.667 107.661 0.7767 107.466 0.971967C107.272 1.16723 107.163 1.43207 107.163 1.70822V63.9159C107.161 68.1981 108.504 72.3718 111 75.8443C113.496 79.3168 117.019 81.9115 121.068 83.2599L126.103 84.9302C126.363 85.0159 126.647 84.9944 126.892 84.8704C127.137 84.7464 127.324 84.53 127.41 84.2686L128.977 79.5234C129.503 77.9211 129.374 76.1748 128.618 74.6679C127.863 73.1609 126.542 72.0167 124.947 71.4865H124.957Z" fill="#2D333F"/>
<path d="M150.526 71.4862C148.935 70.9605 147.551 69.9429 146.572 68.579C145.592 67.2151 145.068 65.5751 145.075 63.8939V33.0531C145.075 31.0553 144.284 29.1394 142.877 27.7268C141.47 26.3141 139.561 25.5205 137.571 25.5205H133.79C133.653 25.5205 133.518 25.5476 133.391 25.6003C133.265 25.6529 133.151 25.7301 133.054 25.8274C132.958 25.9247 132.882 26.0401 132.83 26.167C132.778 26.294 132.752 26.43 132.752 26.5672V63.8939C132.753 68.1788 134.099 72.3545 136.599 75.8273C139.099 79.3002 142.626 81.8933 146.679 83.2379L151.709 84.9082C151.838 84.9515 151.975 84.9687 152.111 84.9589C152.247 84.949 152.38 84.9123 152.502 84.8509C152.624 84.7894 152.732 84.7044 152.822 84.6007C152.911 84.497 152.979 84.3767 153.021 84.2466L154.583 79.5014C154.845 78.7085 154.948 77.8714 154.888 77.0382C154.828 76.2049 154.604 75.3918 154.23 74.6453C153.856 73.8989 153.34 73.2337 152.71 72.6879C152.079 72.1421 151.348 71.7264 150.558 71.4645L150.526 71.4862Z" fill="#2D333F"/>
<path d="M144.427 14.1375C143.707 14.8805 142.845 15.4711 141.894 15.8744C140.942 16.2776 139.92 16.4854 138.887 16.4854C137.854 16.4854 136.832 16.2776 135.88 15.8744C134.929 15.4711 134.067 14.8805 133.347 14.1375C132.599 13.4207 132.006 12.5576 131.604 11.6015C131.201 10.6455 130.998 9.61674 131.008 8.57891C130.997 7.54497 131.194 6.51945 131.586 5.56352C131.979 4.60758 132.559 3.7408 133.293 3.01487C134.025 2.27113 134.896 1.68061 135.857 1.27757C136.817 0.874531 137.848 0.666992 138.89 0.666992C139.931 0.666992 140.962 0.874531 141.923 1.27757C142.883 1.68061 143.755 2.27113 144.486 3.01487C145.218 3.74181 145.797 4.6089 146.189 5.56469C146.58 6.52047 146.777 7.54549 146.766 8.57891C146.775 9.61674 146.573 10.6455 146.17 11.6015C145.768 12.5576 145.175 13.4207 144.427 14.1375Z" fill="#2D333F"/>
<defs>
<linearGradient id="paint0_linear" x1="64.5038" y1="85.8247" x2="64.5038" y2="25.5205" gradientUnits="userSpaceOnUse">
<stop stop-color="#208ABD"/>
<stop offset="1" stop-color="#3DBCDE"/>
</linearGradient>
<linearGradient id="paint1_linear" x1="15.2159" y1="84.9817" x2="15.2159" y2="11.3389" gradientUnits="userSpaceOnUse">
<stop stop-color="#208ABD"/>
<stop offset="1" stop-color="#3DBCDE"/>
</linearGradient>
</defs>
</svg>
