<svg width="32" height="32" viewBox="0 0 32 32" fill="none" xmlns="http://www.w3.org/2000/svg">
<path d="M16.4688 15.661L5.86768 4.16102C5.72803 4.00916 5.51025 3.96033 5.31787 4.03406C5.12646 4.10926 5 4.29383 5 4.49988V27.4999C5 27.7059 5.12646 27.8905 5.31787 27.9657C5.37744 27.9887 5.43896 27.9999 5.5 27.9999C5.63672 27.9999 5.771 27.9437 5.86768 27.8387L16.4688 16.3388C16.645 16.1473 16.645 15.8524 16.4688 15.661Z" fill="#1E2E3D"/>
<path d="M17.8731 17.1844C17.6837 16.9794 17.3272 16.9794 17.1378 17.1844L8.8565 26.1674C8.68902 26.349 8.67926 26.6259 8.83404 26.8192C8.9317 26.9413 9.07672 27.0062 9.22467 27.0062C9.31012 27.0062 9.39654 26.9843 9.47516 26.9388C12.6714 25.0848 16.6539 22.7494 20.2291 20.6317C20.3589 20.5551 20.4468 20.4232 20.4688 20.2743C20.4908 20.1249 20.4439 19.9735 20.3419 19.8627L17.8731 17.1844Z" fill="#1E2E3D"/>
<path d="M26.5043 15.1161L26.5038 15.1156C25.2753 14.3719 23.7377 13.4515 22.0453 12.4457C21.8431 12.3255 21.5834 12.3617 21.4222 12.5365L18.5414 15.661C18.3651 15.8524 18.3651 16.1473 18.5414 16.3387L21.4222 19.4632C21.5199 19.5692 21.6542 19.6244 21.7899 19.6244C21.8778 19.6244 21.9657 19.6014 22.0453 19.5541C23.7377 18.5482 25.2753 17.6278 26.5043 16.8836C26.8148 16.6957 26.9999 16.3651 26.9999 15.9999C26.9999 15.6346 26.8148 15.3041 26.5043 15.1161ZM26.2449 15.5434L26.245 15.5433L26.2449 15.5434Z" fill="#1E2E3D"/>
<path d="M17.1378 14.8153C17.2325 14.9178 17.3658 14.9764 17.5054 14.9764C17.6451 14.9764 17.7784 14.9178 17.8731 14.8153L20.3419 12.1371C20.4439 12.0262 20.4908 11.8749 20.4688 11.7255C20.4468 11.5765 20.3589 11.4447 20.2291 11.368C16.6544 9.25085 12.6714 6.91491 9.47564 5.06091C9.26031 4.9364 8.98834 4.98816 8.83453 5.18054C8.67975 5.3739 8.68951 5.65075 8.85699 5.8324L17.1378 14.8153Z" fill="#1E2E3D"/>
</svg>
