<svg width="140" height="140" viewBox="0 0 140 140" fill="none" xmlns="http://www.w3.org/2000/svg">
<g filter="url(#filter0_dd)">
<rect x="20" y="10" width="100" height="100" rx="50" fill="white"/>
<rect x="22" y="12" width="96" height="96" rx="48" stroke="#B8E0FD" stroke-width="4"/>
</g>
<path d="M47.5 36.25C47.5 33.4886 49.7386 31.25 52.5 31.25H87.5C90.2614 31.25 92.5 33.4886 92.5 36.25V83.75C92.5 86.5114 90.2614 88.75 87.5 88.75H52.5C49.7386 88.75 47.5 86.5114 47.5 83.75V36.25Z" fill="white"/>
<path d="M56.25 36.25C56.25 33.4886 58.0533 31.25 60.2778 31.25H88.4722C90.6967 31.25 92.5 33.4886 92.5 36.25V83.75C92.5 86.5114 90.6967 88.75 88.4722 88.75H60.2778C58.0533 88.75 56.25 86.5114 56.25 83.75V36.25Z" fill="#0795FF"/>
<path d="M61.25 40C60.5596 40 60 40.5596 60 41.25C60 41.9404 60.5596 42.5 61.25 42.5H66.25C66.9404 42.5 67.5 41.9404 67.5 41.25C67.5 40.5596 66.9404 40 66.25 40H61.25Z" fill="#0795FF"/>
<path d="M60 37.5C60 36.8096 60.5596 36.25 61.25 36.25H71.25C71.9404 36.25 72.5 36.8096 72.5 37.5C72.5 38.1904 71.9404 38.75 71.25 38.75H61.25C60.5596 38.75 60 38.1904 60 37.5Z" fill="#0795FF"/>
<path fill-rule="evenodd" clip-rule="evenodd" d="M52.5 88.75C49.7386 88.75 47.5 86.5114 47.5 83.75V83.4375H46.25C45.7322 83.4375 45.3125 83.0178 45.3125 82.5C45.3125 81.9822 45.7322 81.5625 46.25 81.5625H47.5V77.1875H46.25C45.7322 77.1875 45.3125 76.7678 45.3125 76.25C45.3125 75.7322 45.7322 75.3125 46.25 75.3125H47.5V70.9375H46.25C45.7322 70.9375 45.3125 70.5178 45.3125 70C45.3125 69.4822 45.7322 69.0625 46.25 69.0625H47.5V64.6875H46.25C45.7322 64.6875 45.3125 64.2678 45.3125 63.75C45.3125 63.2322 45.7322 62.8125 46.25 62.8125H47.5V58.4375H46.25C45.7322 58.4375 45.3125 58.0178 45.3125 57.5C45.3125 56.9822 45.7322 56.5625 46.25 56.5625H47.5V52.1875H46.25C45.7322 52.1875 45.3125 51.7678 45.3125 51.25C45.3125 50.7322 45.7322 50.3125 46.25 50.3125H47.5V45.9375H46.25C45.7322 45.9375 45.3125 45.5178 45.3125 45C45.3125 44.4822 45.7322 44.0625 46.25 44.0625H47.5V39.6875H46.25C45.7322 39.6875 45.3125 39.2678 45.3125 38.75C45.3125 38.2322 45.7322 37.8125 46.25 37.8125H47.5V36.25C47.5 33.4886 49.7386 31.25 52.5 31.25H87.5C90.2614 31.25 92.5 33.4886 92.5 36.25V83.75C92.5 86.5114 90.2614 88.75 87.5 88.75H52.5ZM55 33.75H52.5C51.1193 33.75 50 34.8693 50 36.25V37.8125H51.25C51.7678 37.8125 52.1875 38.2322 52.1875 38.75C52.1875 39.2678 51.7678 39.6875 51.25 39.6875H50V44.0625H51.25C51.7678 44.0625 52.1875 44.4822 52.1875 45C52.1875 45.5178 51.7678 45.9375 51.25 45.9375H50V50.3125H51.25C51.7678 50.3125 52.1875 50.7322 52.1875 51.25C52.1875 51.7678 51.7678 52.1875 51.25 52.1875H50V56.5625H51.25C51.7678 56.5625 52.1875 56.9822 52.1875 57.5C52.1875 58.0178 51.7678 58.4375 51.25 58.4375H50V62.8125H51.25C51.7678 62.8125 52.1875 63.2322 52.1875 63.75C52.1875 64.2678 51.7678 64.6875 51.25 64.6875H50V69.0625H51.25C51.7678 69.0625 52.1875 69.4822 52.1875 70C52.1875 70.5178 51.7678 70.9375 51.25 70.9375H50V75.3125H51.25C51.7678 75.3125 52.1875 75.7322 52.1875 76.25C52.1875 76.7678 51.7678 77.1875 51.25 77.1875H50V81.5625H51.25C51.7678 81.5625 52.1875 81.9822 52.1875 82.5C52.1875 83.0178 51.7678 83.4375 51.25 83.4375H50V83.75C50 85.1307 51.1193 86.25 52.5 86.25H55V33.75ZM57.5 86.25V33.75H87.5C88.8807 33.75 90 34.8693 90 36.25V83.75C90 85.1307 88.8807 86.25 87.5 86.25H57.5Z" fill="#0795FF"/>
<path d="M61.25 40C60.5596 40 60 40.5596 60 41.25C60 41.9404 60.5596 42.5 61.25 42.5H66.25C66.9404 42.5 67.5 41.9404 67.5 41.25C67.5 40.5596 66.9404 40 66.25 40H61.25Z" fill="white"/>
<path d="M60 37.5C60 36.8096 60.5596 36.25 61.25 36.25H71.25C71.9404 36.25 72.5 36.8096 72.5 37.5C72.5 38.1904 71.9404 38.75 71.25 38.75H61.25C60.5596 38.75 60 38.1904 60 37.5Z" fill="white"/>
<path fill-rule="evenodd" clip-rule="evenodd" d="M84.4608 55.8828L81.9583 51.8359C81.7346 51.4727 81.3375 51.25 80.9133 51.25H65.3352C64.911 51.25 64.5138 51.4727 64.2902 51.8359L61.7877 55.8828C60.4959 57.9727 61.6411 60.8789 64.055 61.2109C64.2285 61.2344 64.4059 61.2461 64.5833 61.2461C65.7246 61.2461 66.7349 60.7383 67.429 59.9531C68.123 60.7383 69.1372 61.2461 70.2747 61.2461C71.416 61.2461 72.4263 60.7383 73.1204 59.9531C73.8145 60.7383 74.8286 61.2461 75.9661 61.2461C77.1075 61.2461 78.1177 60.7383 78.8118 59.9531C79.5097 60.7383 80.52 61.2461 81.6575 61.2461C81.8388 61.2461 82.0123 61.2344 82.1858 61.2109C84.6074 60.8828 85.7564 57.9766 84.4608 55.8828ZM79.2778 62.5V67.5001H66.9708V62.5H64.5068V70.0001C64.5068 70.6915 65.0582 71.2501 65.7407 71.2501H80.5155C81.198 71.2501 81.7495 70.6915 81.7495 70.0001V62.5H79.2778Z" fill="white"/>
<defs>
<filter id="filter0_dd" x="0" y="0" width="140" height="140" filterUnits="userSpaceOnUse" color-interpolation-filters="sRGB">
<feFlood flood-opacity="0" result="BackgroundImageFix"/>
<feColorMatrix in="SourceAlpha" type="matrix" values="0 0 0 0 0 0 0 0 0 0 0 0 0 0 0 0 0 0 127 0"/>
<feOffset dy="10"/>
<feGaussianBlur stdDeviation="10"/>
<feColorMatrix type="matrix" values="0 0 0 0 0 0 0 0 0 0 0 0 0 0 0 0 0 0 0.1 0"/>
<feBlend mode="normal" in2="BackgroundImageFix" result="effect1_dropShadow"/>
<feColorMatrix in="SourceAlpha" type="matrix" values="0 0 0 0 0 0 0 0 0 0 0 0 0 0 0 0 0 0 127 0"/>
<feMorphology radius="1" operator="dilate" in="SourceAlpha" result="effect2_dropShadow"/>
<feOffset dy="2"/>
<feGaussianBlur stdDeviation="1"/>
<feColorMatrix type="matrix" values="0 0 0 0 0 0 0 0 0 0 0 0 0 0 0 0 0 0 0.1 0"/>
<feBlend mode="normal" in2="effect1_dropShadow" result="effect2_dropShadow"/>
<feBlend mode="normal" in="SourceGraphic" in2="effect2_dropShadow" result="shape"/>
</filter>
</defs>
</svg>
